<svg width="16" height="16" viewBox="0 0 16 16" fill="none" xmlns="http://www.w3.org/2000/svg">
<path d="M1.13489 15.643C0.979382 15.6428 0.827415 15.5966 0.698174 15.5101C0.568934 15.4236 0.468214 15.3007 0.408729 15.1571C0.349244 15.0134 0.33366 14.8553 0.363946 14.7028C0.394231 14.5502 0.469027 14.4101 0.578892 14.3L14.2919 0.587023C14.4394 0.439562 14.6394 0.35672 14.8479 0.35672C15.0564 0.35672 15.2564 0.439562 15.4039 0.587023C15.5514 0.734483 15.6342 0.934482 15.6342 1.14302C15.6342 1.35156 15.5514 1.55156 15.4039 1.69902L1.69189 15.412C1.5442 15.5598 1.34384 15.6429 1.13489 15.643Z" fill="#434552"/>
<path d="M14.8479 15.643C14.7445 15.6433 14.6422 15.623 14.5467 15.5833C14.4513 15.5437 14.3646 15.4854 14.2919 15.412L0.578899 1.70002C0.431306 1.55242 0.348389 1.35224 0.348389 1.14352C0.348389 0.934788 0.431306 0.734609 0.578899 0.587016C0.726492 0.439423 0.926671 0.356506 1.1354 0.356506C1.34413 0.356506 1.54431 0.439423 1.6919 0.587016L15.4039 14.3C15.5137 14.41 15.5885 14.5501 15.6188 14.7025C15.6491 14.8549 15.6336 15.013 15.5743 15.1566C15.5149 15.3002 15.4143 15.4231 15.2852 15.5097C15.1562 15.5962 15.0033 15.6426 14.8479 15.643Z" fill="#434552"/>
</svg>
